<svg width="64" height="64" viewBox="0 0 64 64" fill="none" xmlns="http://www.w3.org/2000/svg" role="img" aria-label="Brinexa mark">
  <defs>
    <linearGradient id="bxg" x1="14" y1="8" x2="46" y2="60" gradientUnits="userSpaceOnUse">
      <stop stop-color="#36E0C4"/>
      <stop offset="0.5" stop-color="#23B6D9"/>
      <stop offset="1" stop-color="#2A3A8C"/>
    </linearGradient>
  </defs>
  <!-- folded ribbon / lightning forming a stylized S -->
  <path d="M40 10 H22 a8 8 0 0 0 0 16 h12 l-4 8 H18 l16 12 v-2 l-8 -6 h12 a8 8 0 0 0 0 -16 H26 l4 -8 h14 z"
        fill="url(#bxg)"/>
  <!-- bold downward bolt accent -->
  <path d="M30 30 L42 30 L24 56 L29 37 L20 37 Z" fill="url(#bxg)" opacity="0.92"/>
  <!-- pixel particles flying off top-left -->
  <rect x="12" y="20" width="5" height="5" rx="1.4" fill="#36E0C4"/>
  <rect x="6"  y="14" width="4" height="4" rx="1.2" fill="#36E0C4" opacity="0.85"/>
  <rect x="13" y="9"  width="3.5" height="3.5" rx="1" fill="#2BD0CF" opacity="0.7"/>
  <rect x="4"  y="24" width="3" height="3" rx="0.8" fill="#36E0C4" opacity="0.55"/>
</svg>
